<svg width="1395" height="609" viewBox="0 0 1395 609" fill="none" xmlns="http://www.w3.org/2000/svg">
<path d="M20 355.5V360C21.5 360.5 23 359.5 24 357C23 355.5 22 355 21 355C21 355 20.5 355 20 355.5ZM19 336.5L19.5 337C25 336.5 25.5 335.5 19 336.5ZM20 317V318.5C20.5 319 21 319 21.5 319C22.5 319 23.5 318.5 24.5 318C23.5 317 22.5 316.5 21.5 316.5C21 316.5 20.5 316.5 20 317ZM32.5 389C37.5 388 38 387 33 386C28.5 386 28.5 387 32.5 389ZM34.5 350.5C34.5 353.5 35 355 35.5 355C36 355 36.5 354 37.5 351.5C37 348.5 36 347 35.5 347C35.5 347 35 348.5 34.5 350.5ZM58.5 386C57 387.5 59.5 388 58.5 386V386ZM58 371.5L59 372.5C60 372.5 59.5 370 58 371.5ZM62.5 365.5L64.5 363.5C64.5 363 63.5 362.5 63 362.5C61.5 362.5 59.5 363.5 62.5 365.5ZM70 387.5L68.5 386C68 386.5 68.5 389 70 387.5ZM89.5 388L90.5 386.5C90.5 386 88 386.5 89.5 388ZM97 378.5C95.5 380 98 380.5 97 378.5V378.5ZM101 374.5L99.5 373.5C99 373.5 99.5 376 101 374.5ZM110.5 372.5C109.5 370.5 112 371 110.5 372.5V372.5ZM118.5 388C117.5 386 120 386.5 118.5 388V388ZM130 379.5C133 376.5 132.5 374.5 129 373C126 375 126.5 377.5 130 379.5ZM145 365C148 364 149.5 363 147.5 362C145 362 143 362 140.5 362.5C141 363.5 142.5 364 145 365ZM152 374.5C154 375.5 155.5 376.5 157 376.5C159 376.5 160 375 160.5 372.5C160 370.5 159 369.5 158 369.5C155.5 369.5 152.5 373.5 152 374.5ZM173 366C171 367 171.5 364.5 173 366V366ZM19 231.5C19 233 20.5 234 22 234C25 234 29 232 30 231.5C30 232 24.5 228.5 21.5 228.5C20 228.5 19 229.5 19 231.5ZM26 297.5L25 296C24.5 296.5 24.5 299 26 297.5ZM34.5 283.5C36 286.5 37 288 38 288C38.5 288 39.5 287 40 285C39 283.5 38 283 37 283C36 283 35.5 283 34.5 283.5ZM46.5 308C45 306.5 48 306.5 46.5 308V308ZM46.5 365C45 363 48 363.5 46.5 365V365ZM24.5 112C23.5 111 22.5 110.5 21.5 110.5C21 110.5 20 111 19 111.5C19.5 112.5 20.5 113 21.5 113C22.5 113 23.5 112.5 24.5 112ZM24 166.5C27 166 26.5 162.5 25.5 162.5C25 162.5 24.5 163.5 24 166.5ZM24 125.5C25 125.5 25.5 125.5 26 125.5C28 125.5 28.5 125 28.5 124.5C28.5 124 27.5 123.5 26.5 123.5C26 123.5 25 124 24 125.5ZM25.5 149C25 146.5 28.5 149 25.5 149V149ZM29 183.5C28.5 183 27.5 182.5 26.5 182.5C25.5 182.5 24.5 183 23.5 184C24 186.5 24.5 187.5 25.5 187.5C26.5 187.5 27.5 186 29 183.5ZM29.5 189.5C30 190 31 190 31.5 190C33 190 33.5 189.5 33.5 189C33.5 188.5 33 188 32 188C31 188 30 188.5 29.5 189.5ZM36 246.5C35 244.5 37.5 245 36 246.5V246.5ZM38.5 200.5C34 202.5 35 203.5 37.5 203.5C40 203.5 44 202.5 44 201.5C43.5 200.5 42.5 200 41 200C40 200 39.5 200 38.5 200.5ZM43.5 263C44 260.5 43 260 42 260C40.5 260 39.5 261 43.5 263ZM41.5 244.5C44.5 243 43.5 242 42.5 242C41 242 40 242.5 41.5 244.5ZM47.5 195V194C44.5 193 44.5 196.5 45.5 196.5C46 196.5 46.5 196 47.5 195ZM24 30C23 29 22 28.5 21.5 28.5C20.5 28.5 19.5 29 19.5 29.5C19.5 30 20.5 30 22 30C22.5 30 23 30 24 30ZM28 97.5C27 100 25.5 102 24.5 104.5C25.5 104.5 26 105 26.5 105C30 105 29.5 100.5 28 97.5ZM29 150.5L27 149.5C26.5 149.5 27 151 28 151C28 151 28.5 151 29 150.5ZM29 81L27.5 80C27 80 27.5 82.5 29 81ZM27 55.5C28.5 57 29 54.5 27 55.5V55.5ZM38.5 112.5C37.5 110.5 40 111 38.5 112.5V112.5ZM43.5 152C39.5 151.5 30 156.5 37.5 158.5C42 156.5 48.5 152.5 43.5 152ZM45 135C44 134 43 133.5 42 133.5C41.5 133.5 40.5 134 39.5 135C40.5 135.5 41 136 42 136C43 136 44 136 45 135ZM45 176.5C44 175.5 43 175 42 175C41.5 175 40.5 175 39.5 176C40.5 177 41 177.5 42 177.5C43 177.5 44 177 45 176.5ZM28.5 64C29 61 28.5 59.5 28 59.5C27 59.5 26 62.5 28.5 64ZM38 36.5C39 34 38 33.5 36.5 33.5C35.5 33.5 34.5 34.5 38 36.5ZM43.5 26C44 24 43 23 42 23C40.5 23 39.5 24 43.5 26ZM43.5 49C44 47 43 46.5 42 46.5C40.5 46.5 39.5 47.5 43.5 49ZM41.5 92.5C44.5 91 43.5 90 42.5 90C41 90 40 91 41.5 92.5ZM187 402C187.5 404.5 185.5 407 183 407C182.5 407.5 181.5 407.5 181 407.5C178.5 407.5 175.5 406.5 175 404C173.5 400.5 171.5 400 169 398.5C166.5 398.5 164.5 398.5 163.5 398C159 397.5 155 397.5 151 397.5C146 397.5 141 398 136.5 398.5C135 398.5 133.5 398.5 131.5 398.5C130 398.5 128.5 398.5 127.5 398.5C125.5 398 123.5 398 121 398C119.5 398 117.5 398 115.5 398C110 398.5 105 398.5 101 398.5C97 398.5 93.5 398.5 90.5 398C87.5 398 84.5 397.5 82 397.5C79 397.5 76 397.5 73.5 398C70 398.5 66.5 398.5 63.5 398.5C61 398.5 58.5 398.5 56.5 398C55 398 53.5 398 52.5 398C51 398 50 398 48.5 398C43.5 398.5 39.5 399 37 399.5C35.5 400 33.5 400 32 400C30.5 400 29 400 27.5 399.5L20.5 397.5C15.5 398 10.5 398.5 5.5 399C2.5 399 1 396 1.5 393.5C2 391 2 389.5 4.5 387.5C7 385.5 9.5 385 11.5 383C11 382 11 381 11.5 379.5C11.5 378 12 376.5 12 374.5V352C11.5 350.5 11.5 349.5 11 348C10 346 10 344 10.5 342.5C10.5 339 10.5 334.5 11.5 329C11.5 328 11.5 326.5 12 325V310C11 305 10.5 300 10.5 295.5C10.5 293.5 10.5 292 11 290C11 289 11 287.5 10.5 285C10.5 283 10.5 281.5 10.5 280.5C9 274.5 9 269.5 10.5 265C11.5 262.5 11.5 259.5 11 256C10 254.5 10 252 11 249C11.5 245 12 242 11.5 239.5C10.5 234 10.5 229.5 10.5 223.5C10.5 221.5 11 216 11 206.5C11.5 202 11 197.5 9.5 193.5C8.5 190 8.5 187.5 9.5 186C10 183.5 10.5 180.5 10 177.5V171.5C10 165 10.5 156.5 12 150V127.5L10.5 108C10.5 106 10.5 103.5 12 97L11 85C9.5 82.5 9 79.5 10.5 76C11 74.5 11.5 72.5 12 71L11.5 61L10 45.5C10 40 9.5 36 9.5 33.5C9.5 32.5 9.5 31 9.5 29.5C7.5 27.5 5.5 25.5 4 23.5H3.5C0.5 19.5 0 16 5 14C5.5 13.5 6.5 13.5 7.5 13.5C10 13.5 13 14.5 16 15H22C26 14.5 29.5 14 33.5 14C35.5 14.5 38 14.5 40 14.5C45.5 14.5 51.5 14 57 14C58 14 58.5 14 59.5 14C60.5 14 61.5 14 62.5 14.5C64 15.5 65 17.5 64.5 19.5C64 20.5 63.5 23 63 24.5C61 27 57 28.5 55.5 32C55.5 35.5 56 38 56 39V44C56 46 56 48 56 48.5C55.5 51.5 55 55.5 55 60.5C55 64 55 68 55.5 72.5C55.5 74.5 55.5 76 55 77V79C55.5 81 55.5 83 55.5 85C55.5 88 55 91 54.5 94.5V97.5C54.5 101 55 106 56 115.5C56 117.5 56 120 56 124C55.5 127.5 55.5 130 55.5 132C55.5 135.5 55 141 54.5 148V153.5C55 157.5 55 161.5 55 166C55 169 55 172 55 175C55 176 55 185.5 55.5 189.5C56 191 56 192.5 56 198V203C55.5 205.5 55 207 55.5 208.5C55.5 210 56 211.5 56 213C56 215.5 55.5 218 55 221C55 223 55 224.5 55 226.5C55 230 55 233.5 56 236.5C56 239 56 241 56 243C55.5 245.5 55 248 55 250.5C55 252 55.5 253.5 55.5 255.5V262C55.5 265 55.5 267.5 55 269C55 271 55 272.5 54.5 274C54 277.5 54 280.5 54.5 284C55 285.5 55.5 287 55.5 288.5C55.5 292.5 55.5 296 56 298.5C56 301 56 302.5 56 303.5C55.5 305.5 55.5 308 55.5 311C56 313 56 314.5 55.5 316C55 321.5 54.5 326 54.5 328.5V344.5C55 347 55.5 349.5 55.5 352.5C57 352.5 58.5 353 60 353.5L63.5 354.5C65.5 355 67 355 68.5 355H71C72.5 355 74 355 75 354.5C76.5 354 78 354 79.5 354C81.5 354 83 354 84.5 354.5C86 355 88.5 355 91.5 355C98 355 102.5 355 105.5 354.5C108.5 354 112 353.5 115 353.5C119 353.5 123.5 354 132 355H134.5C136 355 137 355 138 354.5C141.5 354 144.5 353.5 148 353.5C151 354.5 157.5 354.5 160.5 354.5H168.5C169.5 353 171 352 172 350C173.5 347 176.5 344 179.5 344C181 344 182.5 344.5 184 345.5C186 346.5 186.5 348.5 186 353.5C185.5 355.5 185.5 357 185 361.5C185.5 362.5 185.5 364 186 366C187.5 376 185 386 186 398C186 399.5 186.5 400.5 187 402ZM280.965 294.5C283.965 293 284.465 291 280.965 294.5V294.5ZM285.965 373L284.465 371.5C283.965 372 284.465 374.5 285.965 373ZM291.465 347.5C290.965 346.5 289.965 346 288.965 346C287.965 346 286.965 346.5 287.465 347C287.465 347.5 287.965 348 289.465 348C289.965 348 290.465 347.5 291.465 347.5ZM289.465 355.5L286.965 358C287.465 358 287.965 358.5 288.465 358.5C290.465 358.5 291.965 357.5 289.465 355.5ZM292.465 382C290.965 383.5 293.465 384 292.465 382V382ZM305.965 350.5C304.965 348.5 307.465 349 305.965 350.5V350.5ZM281.965 207L282.465 208.5C284.965 206.5 282.965 206.5 281.965 207ZM284.965 247L285.965 246C285.965 245.5 283.465 245.5 284.965 247ZM283.965 205C283.965 206 283.965 206.5 284.465 206.5C284.965 206.5 285.965 204.5 283.965 205ZM292.465 237.5C290.965 239 293.465 239.5 292.465 237.5V237.5ZM294.965 275.5L296.465 274C295.965 273.5 293.465 274 294.965 275.5ZM293.965 320.5C294.465 323.5 294.965 325 295.465 325C295.965 325 296.465 324 296.465 321.5C296.465 318.5 295.965 317 295.465 317C294.965 317 294.465 318.5 293.965 320.5ZM293.965 340C294.965 341.5 295.465 342 295.965 342C296.965 342 296.965 339 294.965 339C294.465 339 293.965 339 293.965 340ZM296.465 234L294.965 232.5C294.465 232.5 294.965 235.5 296.465 234ZM297.465 260.5C302.965 260 303.465 259 298.465 257.5C292.965 258.5 292.465 259.5 297.465 260.5ZM302.465 324C303.965 325.5 304.465 323 302.465 324V324ZM307.465 376.5C310.965 376.5 311.965 375.5 311.965 373C311.465 371.5 310.965 370 310.465 368.5C303.965 371 302.965 373.5 307.465 376.5ZM284.965 144L285.965 143C285.965 142 283.465 142.5 284.965 144ZM305.965 232C304.965 230 307.465 230.5 305.965 232V232ZM309.965 266C307.465 266.5 302.465 269 306.965 270.5C307.965 271 309.465 270.5 310.465 269.5C310.465 268.5 309.965 267 309.965 266ZM309.465 322.5C305.965 323 307.965 322 309.465 322.5V322.5ZM308.965 283.5C306.465 286 306.465 288 309.965 290C309.965 288 309.965 286 308.965 283.5ZM285.965 115L284.465 114C283.965 114 284.465 116.5 285.965 115ZM284.465 137.5L285.465 139C285.965 139 285.965 136 284.465 137.5ZM289.965 117.5C287.965 119.5 285.965 121 283.965 122.5C285.465 123.5 287.465 123.5 288.465 123.5C290.965 123.5 291.965 122 289.965 117.5ZM289.465 104.5C292.465 101.5 292.465 99.5 288.965 98C285.465 100.5 285.965 102.5 289.465 104.5ZM288.465 75C285.465 77 285.965 79 289.465 81.5C292.465 78.5 291.965 76.5 288.465 75ZM291.465 59.5C291.465 57.5 290.465 57 289.465 57C288.465 57 287.465 57.5 287.465 58C287.465 59 288.465 59.5 291.465 59.5ZM292.965 128.5C291.465 127 290.465 126.5 289.465 126.5C287.965 126.5 287.465 127.5 286.465 129C287.465 130.5 288.465 131.5 289.465 131.5C290.965 131.5 291.965 130.5 292.965 128.5ZM292.465 33.5L293.965 32C293.465 31.5 290.965 32 292.465 33.5ZM293.965 61L291.965 60C291.465 60 291.965 61.5 292.965 61.5C292.965 61.5 293.465 61.5 293.965 61ZM291.465 55.5C291.465 56.5 291.965 57 291.965 57C292.965 57 293.965 55 291.465 55.5ZM296.465 125.5L294.965 124C294.465 124.5 294.965 127 296.465 125.5ZM298.965 167.5C295.965 170 296.465 172 299.965 174C302.965 171.5 302.465 169.5 298.965 167.5ZM301.965 151.5C300.965 150.5 299.965 150 298.965 150C298.465 150 297.465 150.5 297.465 151C297.465 151.5 297.965 152 299.465 152C300.465 152 300.965 152 301.965 151.5ZM299.465 49.5L301.465 47C300.965 47 300.465 46.5 299.965 46.5C298.465 46.5 295.965 47.5 299.465 49.5ZM298.965 131.5C301.465 130.5 300.965 129.5 299.465 129.5C298.465 129.5 296.965 130 298.965 131.5ZM300.965 217C304.965 215.5 304.965 214.5 300.465 214C295.965 215.5 295.965 216.5 300.965 217ZM301.965 23.5C295.965 24 295.465 25 300.465 26.5C305.465 25.5 305.965 24.5 301.965 23.5ZM305.465 110C304.465 108.5 301.465 105 299.465 105C298.465 105 297.465 106 296.965 108C297.465 110.5 298.465 112 300.465 112C301.465 112 303.465 111 305.465 110ZM301.465 44C301.965 45.5 302.965 45.5 303.465 45.5C304.465 45.5 304.965 43 301.465 44ZM304.965 22H304.465C304.465 23 304.465 23.5 304.965 23.5C305.465 23.5 305.965 22.5 304.965 22ZM322.465 386C327.465 389.5 326.465 390.5 325.965 396.5C325.965 398.5 323.965 400 321.965 399.5C317.965 399 313.465 398 309.465 397.5H303.465C299.965 398 296.465 399.5 292.465 399.5C288.965 399.5 285.965 398.5 282.465 398C277.465 398 272.465 398.5 267.465 399C265.465 399 263.965 396.5 264.465 394.5L264.965 390.5C265.465 388.5 266.465 387.5 268.465 387C269.965 387 271.465 386 273.465 384C272.965 378 272.965 373 273.465 370C274.465 365 273.965 361 272.965 357C271.465 354.5 271.465 351 272.465 347L273.465 343.5C274.965 339 274.965 335.5 273.465 332C272.965 329 272.965 326 273.465 322.5C273.965 321 274.465 319 274.465 315.5C274.465 309 273.965 304.5 273.465 301.5C272.965 298.5 272.965 295 272.965 291.5C272.965 287.5 272.965 283 273.965 278.5C274.465 275 274.465 272 273.965 268.5C272.965 265.5 272.965 262 272.965 259C272.965 257.5 272.965 255.5 272.965 252.5C273.465 250 273.465 247.5 273.465 246.5V235C273.465 232 273.965 227.5 273.965 221.5C273.965 216 273.965 211.5 273.965 209V205C274.465 201.5 274.465 198 273.465 194.5C271.965 190 271.965 186 273.465 182C274.965 178 274.965 173.5 274.465 169.5C273.965 166.5 273.465 163 273.465 159C273.465 156 273.965 152.5 273.965 148.5C274.465 144.5 274.465 139.5 273.465 134C272.465 130.5 272.465 126.5 273.465 122C273.965 120 274.465 117.5 273.965 116C273.465 113 272.965 109.5 272.965 106C272.965 103.5 273.465 101 273.465 98V96.5C273.465 93.5 273.465 88.5 273.965 82C274.465 79 274.465 76 274.465 73.5C274.465 70 274.465 67 273.465 64.5C272.965 61.5 272.965 58 273.465 55C273.965 53.5 273.965 51.5 273.965 48.5V42.5C273.965 40 273.965 38 273.965 35.5C273.965 33.5 273.965 31 272.465 27C270.465 26 267.465 26 266.465 24C264.465 22 263.965 19 267.465 14C267.965 13.5 268.965 13.5 269.965 13.5C272.965 13.5 275.965 14.5 278.965 15H288.465C293.965 14 298.465 13.5 303.965 13.5C305.465 13.5 306.965 13.5 308.965 14C308.965 14 309.465 14 309.965 14C312.965 14 316.965 13 319.965 13C322.465 13 324.465 13.5 325.465 15C325.965 16.5 326.465 18 325.965 21.5C326.465 24.5 323.965 26 320.965 25.5L318.465 27V34C318.965 43.5 319.465 53 319.465 62.5V64.5C319.465 68.5 319.465 73 318.465 78C317.965 82.5 318.465 87 318.965 91C319.465 99 319.465 104 319.465 106.5V110.5C319.465 117 318.965 124 318.465 130.5C318.465 135.5 317.965 139.5 317.965 142.5V161.5C317.965 166.5 317.965 170.5 318.965 174.5C319.965 177.5 319.965 181 318.965 184C318.465 186.5 317.965 190.5 317.965 196C318.465 203 318.965 208.5 318.965 212V237C318.965 240 318.465 242 318.465 243C317.965 247.5 317.465 252 317.465 256C317.465 261 317.965 265.5 318.965 270C318.965 273.5 318.965 276.5 318.965 279.5C317.965 282 317.965 286 318.465 291.5C318.465 300 318.465 308 318.465 316.5C317.965 319.5 317.965 322.5 317.965 325.5C317.965 328 317.965 331 318.465 333.5C318.465 337 318.465 340.5 318.465 343.5C318.465 346.5 318.465 349 318.465 351C317.965 353.5 317.965 356 318.465 358.5C318.965 364 319.465 368 319.965 370.5C320.465 373.5 320.465 377 319.965 380L318.465 383.5C319.965 384.5 321.965 385.5 322.465 386ZM425.93 354L427.43 352.5C426.93 352 424.43 352.5 425.93 354ZM441.93 336.5C437.43 336.5 436.93 337.5 441.43 339.5C446.43 338.5 446.43 337.5 441.93 336.5ZM420.93 215.5C422.93 213.5 422.93 212 420.93 210.5C420.93 212.5 420.93 214 420.93 215.5ZM423.43 325.5L424.43 324C424.43 323.5 421.93 324 423.43 325.5ZM429.43 284C423.93 285 423.43 286 428.43 287C433.93 286.5 434.43 285.5 429.43 284ZM426.43 308C427.43 309.5 428.43 310.5 429.43 310.5C430.93 310.5 431.93 309.5 432.93 307C431.93 306 430.93 305.5 429.93 305.5C428.43 305.5 427.43 306.5 426.43 308ZM427.43 268C428.43 268.5 429.43 269 430.43 269C430.93 269 431.93 268.5 432.93 268C432.43 267 431.43 266.5 430.43 266.5C429.43 266.5 428.43 267 427.43 268ZM437.93 361.5C438.43 366 439.43 367 440.93 367C443.93 367 447.43 361.5 447.43 361.5C445.43 358 443.43 356.5 441.43 356.5C439.93 356.5 438.93 358 437.93 361.5ZM445.93 302C445.43 299 444.93 297.5 444.43 297.5C443.93 297.5 443.43 298.5 442.93 300.5C443.43 303.5 443.93 305 444.43 305C444.93 305 445.43 304 445.93 302ZM438.93 181.5C438.93 181.5 433.43 178.5 429.93 178.5C428.43 178.5 427.43 179 427.93 181.5C427.93 183 429.43 183.5 430.93 183.5C433.93 183.5 437.93 182 438.93 181.5ZM434.93 247.5L433.43 246C432.93 246.5 433.43 249 434.93 247.5ZM444.93 196.5C443.43 194.5 446.43 195 444.93 196.5V196.5ZM443.43 234C444.43 236.5 445.93 238 446.93 238C447.43 238 447.93 237 448.93 235C447.93 233.5 446.93 233 445.43 233C444.93 233 444.43 233.5 443.43 234ZM553.43 275.5C555.43 273.5 557.43 272 559.43 270.5C557.43 269.5 555.93 269 554.43 269C551.93 269 550.93 271 553.43 275.5ZM553.43 251C556.43 249.5 555.43 248.5 554.43 248.5C553.43 248.5 551.93 249.5 553.43 251ZM553.93 315.5C560.43 313 560.43 311 552.43 310L553.93 315.5ZM563.93 230C561.43 232 562.93 233 564.93 233C565.43 233 565.93 232.5 563.93 230ZM568.93 301C567.93 300.5 566.93 300 565.93 300C563.93 300 561.93 301 560.43 303C561.93 304.5 563.43 305 564.43 305C566.43 305 567.93 303.5 568.93 301ZM560.93 325C562.93 326 564.43 326.5 565.93 326.5C567.93 326.5 568.93 325.5 569.43 322.5C568.93 320.5 567.93 320 566.93 320C564.43 320 561.43 323.5 560.93 325ZM569.43 260.5C567.43 260 565.93 259.5 564.93 259.5C561.93 259.5 561.93 261.5 563.43 266.5C565.43 264.5 567.43 262.5 569.43 260.5ZM565.43 280C570.43 279 570.93 278 566.43 277C560.93 277.5 560.43 278.5 565.43 280ZM577.43 353.5C578.93 355 579.43 352.5 577.43 353.5V353.5ZM421.43 86L421.93 88C422.43 86.5 422.43 85 421.43 86ZM421.93 64L421.43 67.5C422.43 66 422.43 65 421.93 64ZM422.43 147.5C422.93 148.5 423.43 149 423.93 149C424.93 149 424.93 146 422.93 146C422.93 146 422.43 146.5 422.43 147.5ZM566.93 153C567.43 154.5 568.43 155 568.93 155C569.93 155 570.93 154 572.43 151.5C571.43 151 570.93 150.5 569.93 150.5C568.93 150.5 567.93 151 566.93 153ZM569.93 195L571.43 196.5C571.93 196 571.43 193.5 569.93 195ZM419.93 43L420.93 44.5C422.43 45 422.93 45 423.93 45C425.43 45 426.43 44.5 426.93 42.5C423.93 42.5 421.43 43 419.93 43ZM424.93 36.5C425.43 37.5 425.93 38 426.43 38C427.43 38 427.93 35 425.93 35C425.43 35 424.93 35.5 424.93 36.5ZM432.93 61.5C432.43 60.5 431.43 60 430.43 60C429.43 60 428.43 60.5 427.43 61.5C428.43 62 429.43 62.5 430.43 62.5C430.93 62.5 431.93 62 432.93 61.5ZM432.93 116C435.43 116 434.93 112.5 433.93 112.5C433.43 112.5 432.93 113 432.93 116ZM432.93 75C433.43 75 434.43 75 434.93 75C436.43 75 436.93 74.5 436.93 74.5C436.93 74 436.43 73.5 435.43 73.5C434.43 73.5 433.43 73.5 432.93 75ZM433.93 98.5C433.93 96.5 436.93 98.5 433.93 98.5V98.5ZM437.93 133.5C436.93 132.5 435.93 132.5 435.43 132.5C434.43 132.5 433.43 133 432.43 134C432.43 136 433.43 137 433.93 137C434.93 137 436.43 136 437.93 133.5ZM436.43 47C435.43 49.5 434.43 51.5 432.93 54C433.93 54.5 434.43 54.5 435.43 54.5C438.43 54.5 438.43 50 436.43 47ZM437.43 100L435.93 99C435.43 99.5 435.93 100.5 436.43 100.5C436.93 100.5 437.43 100.5 437.43 100ZM437.93 139.5C438.93 139.5 439.43 139.5 439.93 139.5C441.43 139.5 442.43 139.5 442.43 139C442.43 138.5 441.43 138 440.43 138C439.93 138 438.93 138.5 437.93 139.5ZM437.43 30.5L435.93 29.5C435.43 29.5 435.93 32 437.43 30.5ZM448.43 102C444.43 103.5 440.43 106.5 448.93 107C448.43 105.5 448.43 103.5 448.43 102ZM446.93 150.5C442.43 152.5 443.43 153.5 445.93 153.5C446.93 153.5 447.43 153 448.43 153L446.93 150.5ZM447.43 62C446.43 60 448.93 60.5 447.43 62V62ZM450.43 42C452.93 40.5 452.43 39.5 450.93 39.5C449.93 39.5 448.43 40.5 450.43 42ZM462.43 32C466.43 30.5 467.43 28 465.43 24C462.43 29.5 456.93 29.5 462.43 32ZM464.43 47.5C462.93 49 465.93 49.5 464.43 47.5V47.5ZM473.43 37.5C475.43 39 476.93 40 478.43 41.5C479.43 39 477.93 35 475.93 35C475.43 35 474.43 35.5 473.43 37.5ZM479.93 60.5C484.93 60 485.43 59 480.43 57.5C475.93 57.5 475.93 58.5 479.93 60.5ZM486.43 41L484.93 39.5C484.43 40 484.93 42.5 486.43 41ZM493.43 68C494.43 66 492.93 65.5 491.93 65.5C490.93 65.5 489.93 66.5 493.43 68ZM492.93 49.5C498.43 49 498.93 48 493.93 46.5C488.43 47.5 487.93 48.5 492.93 49.5ZM505.93 59.5L507.43 58C506.93 57.5 504.43 58 505.93 59.5ZM519.93 48.5L518.93 47.5C517.93 47.5 518.43 50 519.93 48.5ZM531.93 60C533.43 59.5 534.43 59 535.43 58C534.43 58 532.93 57.5 531.93 57.5C529.43 57.5 527.43 58.5 531.93 60ZM532.93 37L535.43 35C534.93 34.5 534.43 34 533.93 34C531.93 34 530.43 35 532.93 37ZM541.93 53L545.93 50C546.93 48.5 547.43 47 548.43 45C547.43 45 546.43 45 545.43 45C540.43 45 540.93 48.5 541.93 53ZM551.93 144.5V145.5C552.43 147 553.43 148 554.43 148C555.93 148 557.43 146.5 559.43 143.5C559.43 141 558.43 140 557.43 140C555.93 140 553.93 141.5 551.93 144.5ZM556.93 206C558.43 207.5 558.93 205 556.93 206V206ZM548.43 30.5L546.93 29.5C546.43 29.5 546.93 32 548.43 30.5ZM555.43 127.5C555.93 125.5 554.93 124.5 553.93 124.5C553.43 124.5 552.93 125 555.43 127.5ZM551.43 26C550.43 24.5 549.43 24.5 548.93 24.5C547.93 24.5 546.93 25 546.93 25.5C546.93 25.5 547.93 26 549.43 26C549.93 26 550.43 26 551.43 26ZM557.93 60L558.93 58C558.43 57.5 555.93 58 557.93 60ZM558.93 55C559.43 56 559.93 56.5 560.43 56.5C561.93 56.5 562.43 54 558.93 55ZM568.43 121.5C566.93 120 565.93 119.5 564.93 119.5C563.43 119.5 562.43 120 561.93 122C562.93 123.5 563.93 124.5 564.93 124.5C565.93 124.5 567.43 123.5 568.43 121.5ZM568.43 93C567.43 91 569.93 91.5 568.43 93V93ZM569.93 49.5C572.43 48 571.43 45 570.43 45.5C569.93 45.5 569.43 46.5 569.93 49.5ZM571.43 111C569.93 109 572.93 109.5 571.43 111V111ZM571.43 132C569.93 130 572.93 130.5 571.43 132V132ZM567.43 31.5C569.93 30 568.93 27 567.93 27C567.43 27 566.93 28.5 567.43 31.5ZM571.93 87C572.43 90 573.93 91 575.93 91C576.43 91 576.93 91 579.43 89.5V88.5C578.43 87.5 576.43 87 574.43 87C573.43 87 572.93 87 571.93 87ZM579.93 189.5C579.93 187.5 580.43 186 580.43 185C576.43 186.5 576.43 188.5 579.93 189.5ZM577.43 22.5C575.93 22.5 573.93 22.5 572.43 22C572.93 23 573.93 24 575.43 25C577.43 24 578.93 23.5 577.43 22.5ZM594.43 388.5C595.93 389 596.93 390.5 596.93 392C597.43 393 597.43 394.5 597.43 396C597.43 398.5 594.93 399.5 593.43 399.5C591.93 399 590.93 399 589.43 399C586.43 399 582.93 399.5 579.93 399.5C577.43 399.5 574.93 399 572.43 398.5H546.93C543.93 399 540.93 399.5 538.43 399.5C535.43 399.5 534.43 396.5 535.43 392C535.43 390 537.43 388.5 539.43 388.5L543.43 383.5V380.5C543.43 374 543.43 370 542.93 368V363.5C542.93 361 542.93 359.5 543.43 358.5C543.43 356 543.93 352 543.93 347C543.93 343.5 543.93 339.5 543.43 334.5C543.43 332.5 543.43 331 543.93 330V328C543.43 326 543.43 324.5 543.43 322.5C543.43 319.5 543.93 316 544.43 312.5V310C544.43 306 543.93 301 542.93 291.5C542.93 289.5 542.93 287 543.43 283.5C543.43 275 543.93 267.5 544.43 259V253.5C543.93 249.5 543.93 245.5 543.93 241C543.93 238 543.93 235 543.93 232C543.93 231 543.93 221.5 543.43 217.5C542.93 216 542.93 214.5 543.43 209V204C543.43 201.5 543.93 199.5 543.43 198.5C543.43 197 543.43 195.5 543.43 194C543.43 191.5 543.43 188.5 543.93 185.5C543.93 184 543.93 182 543.93 180.5C543.93 176.5 543.93 173.5 543.43 170.5C542.93 168 542.93 166 543.43 163.5C543.43 159.5 543.43 155.5 543.43 151.5V145C543.43 141.5 543.43 139 543.93 138C543.93 135.5 543.93 134 544.43 132.5C544.93 129.5 544.93 126 544.43 123C543.93 121 543.43 119.5 543.43 118.5C543.43 114 543.43 110.5 542.93 108C542.93 106 542.93 104 543.43 103C543.43 101 543.43 99 543.43 95.5C543.43 93.5 543.43 92 543.43 90.5C543.93 85 544.43 80.5 544.43 78L542.43 63C540.43 65 537.43 66.5 534.43 67.5C532.93 68 530.93 69 528.43 70.5L523.43 73.5C521.43 75 519.43 76 517.43 77C513.43 79 509.93 81 505.43 83.5C503.43 85 501.43 86 498.93 86C493.93 86 489.93 81 486.93 77.5C483.93 75 472.93 68.5 468.93 67.5C465.93 66.5 462.93 65 460.43 63C459.43 61.5 458.43 60.5 456.93 60.5C456.93 64 456.93 68 457.43 73C457.43 75 456.93 76.5 456.93 77.5V79.5C456.93 81.5 457.43 83.5 457.43 85.5C457.43 88 456.93 91.5 456.43 95V97.5C456.43 101.5 456.93 106.5 457.93 116C457.93 118 457.93 120.5 457.43 124.5C457.43 132.5 456.93 140.5 456.43 148.5V154C456.93 158 456.93 162 456.93 166.5C456.93 169.5 456.93 172.5 456.93 176C456.93 176.5 456.93 186 457.43 190C457.93 191.5 457.93 193.5 457.43 198.5V203.5C456.93 206 456.93 208 457.43 209C457.43 210.5 457.43 212 457.43 213.5C457.43 216 457.43 219 456.93 222C456.93 223.5 456.93 225.5 456.93 227C456.93 231 456.93 234.5 457.43 237.5C457.93 239.5 457.93 242 457.43 244C457.43 246 456.93 248.5 456.93 251.5C456.93 253 456.93 254.5 457.43 256V263C457.43 265 456.93 273 456.43 275C455.93 278 455.93 281.5 456.43 284.5C456.93 286.5 457.43 288 457.43 289C457.43 293.5 457.43 297 457.93 299.5C457.93 301.5 457.93 303.5 457.43 304.5C457.43 306.5 457.43 309 457.43 312C457.43 314 457.43 315.5 457.43 317C456.93 322.5 456.43 327 456.43 329.5V345.5C456.93 350 457.43 353 457.43 357.5C457.43 365 457.43 369.5 456.93 371.5V378C456.93 379.5 456.93 381.5 456.93 383C457.93 385 459.93 386.5 464.93 390C464.93 392 465.93 394 462.43 399.5C453.93 399.5 445.93 399 437.93 398.5H416.43C413.43 399 410.43 399.5 407.43 399.5C405.43 400 403.93 398 403.93 396.5V392.5C403.93 390.5 404.93 388.5 407.43 388.5C409.93 388 411.93 386.5 412.93 384.5C412.93 383.5 412.93 382 413.43 378L412.43 349C411.93 347 411.93 345 411.93 343.5C411.93 340 412.43 336 413.43 327.5V310C412.93 303.5 412.43 297.5 412.43 291C412.43 289.5 412.43 288 412.43 286C412.43 284 411.93 282.5 411.93 281.5C410.93 275.5 410.93 270 411.93 266C413.43 263.5 413.43 260.5 412.43 256.5C411.93 255.5 411.93 253 412.43 249.5C413.43 246 413.43 243 413.43 240.5C412.43 234.5 411.93 230.5 411.93 224C412.43 222.5 412.43 217 412.43 207.5C413.43 202.5 412.43 198 410.93 194.5C410.43 191 410.43 188 410.93 186.5C411.93 184 411.93 181.5 411.43 178.5V172C412.43 166.5 413.43 158.5 413.43 152.5V126L411.93 108.5C411.93 106.5 412.43 104 413.43 98.5L412.43 85.5C410.93 82.5 410.93 79.5 411.93 76.5C412.93 75 413.43 73.5 413.43 72V61.5L411.43 45.5C411.43 40 411.43 36.5 410.93 32.5C410.43 31.5 410.43 30 410.93 28.5C409.93 27 408.43 26.5 405.93 26C403.93 25.5 402.93 23.5 403.43 22C403.93 19.5 402.93 16 405.43 14.5C405.93 14 406.93 13.5 407.43 13.5C408.93 13.5 409.93 14 411.43 14.5C413.93 14.5 416.43 15 419.43 15C420.43 15 421.43 15 422.43 15C423.93 14.5 424.93 14.5 425.93 14.5C426.43 14.5 426.93 14.5 429.43 14.5C431.43 14.5 433.43 14.5 435.43 15H451.43C455.93 14 459.93 13.5 464.43 13C468.93 13 471.43 15.5 472.43 18.5C474.93 20 477.93 22 480.93 24C485.43 27.5 490.43 30 495.93 32C497.43 33 499.43 34 501.93 35C506.93 31.5 512.93 28 518.93 25.5L520.93 24C523.93 22 528.43 20 532.93 18C534.93 17.5 536.43 16.5 539.43 15C541.93 15 544.43 15 546.93 15H557.43C560.93 14.5 564.43 14 568.43 14C574.93 14 581.43 15 588.43 15C590.43 15 592.43 15 594.43 14.5C595.93 14.5 597.43 16 597.43 18C597.43 21.5 597.93 23.5 594.93 25.5C592.93 27 590.43 27 587.43 29.5L587.93 58.5C588.93 60.5 588.93 62.5 588.93 64C588.93 67.5 588.43 72 587.43 80V97.5C587.93 102.5 588.43 107 588.43 111C588.43 113 588.43 115 587.93 117C587.93 118 588.43 119.5 588.43 121.5C588.43 123.5 588.93 125 588.93 126C589.93 132 589.93 137.5 588.93 141.5C587.43 144 587.43 147 587.93 151C588.93 152 588.93 154.5 587.93 158C587.43 161.5 587.43 164.5 587.43 167C588.43 173 588.93 177 588.93 183.5C588.43 185 587.93 190.5 587.93 200C587.43 205 587.93 209.5 589.93 213C590.43 216.5 590.43 219.5 589.93 221C588.93 223.5 588.93 226.5 589.43 229.5V235.5C588.93 238 588.93 241.5 587.93 246.5C587.93 250 587.43 252.5 587.43 255V281.5L588.93 299C588.93 301 588.43 303.5 587.43 309L587.93 322.5C589.93 325 589.93 328 588.93 331C587.93 332.5 587.43 334 587.43 335.5V346L589.43 362C589.43 367.5 589.43 371.5 589.93 374C589.93 376.5 588.93 380 589.43 386.5L594.43 388.5ZM698.719 387.5L700.719 385C700.719 385 700.219 385 699.719 385C697.719 385 695.719 386 698.719 387.5ZM704.219 340C703.719 339 702.719 338.5 702.719 338.5C701.219 338.5 701.219 342 704.219 340ZM701.219 383.5C701.219 384.5 701.719 384.5 701.719 384.5C702.719 384.5 703.719 383 701.219 383.5ZM713.719 371.5C714.219 368.5 713.719 367.5 713.219 367.5C712.219 367.5 711.219 370 713.719 371.5ZM714.719 352.5C716.219 354 716.719 351.5 714.719 352.5V352.5ZM729.719 323C730.219 321 730.719 319.5 729.219 317C726.719 319 726.719 321 729.719 323ZM732.719 301.5C732.719 299.5 731.719 299 730.719 299C729.719 299 728.719 299.5 728.719 300C728.719 301 729.719 301.5 732.719 301.5ZM810.719 311.5L811.219 310.5C810.719 310.5 810.219 310.5 809.719 310.5C807.719 310.5 807.719 313.5 809.219 313.5C809.719 313.5 810.219 313 810.719 311.5ZM722.719 199.5C725.219 199.5 725.719 198.5 722.719 199.5V199.5ZM733.719 275L734.719 273.5C734.719 273 732.219 273.5 733.719 275ZM731.219 174.5C732.219 172.5 730.719 171.5 729.719 171.5C728.719 171.5 727.719 172.5 731.219 174.5ZM733.719 210L734.719 208.5C734.719 208 732.219 208.5 733.719 210ZM734.719 256.5L733.219 255C732.719 255.5 733.219 258 734.719 256.5ZM733.219 233C734.719 234.5 735.219 232 733.219 233V233ZM737.219 183C735.219 184 735.719 181.5 737.219 183V183ZM740.219 223.5C742.719 222 741.719 221 740.719 221C739.719 221 738.219 222 740.219 223.5ZM743.719 243.5L747.719 245.5C747.719 243 747.719 238.5 745.719 238.5C745.219 238.5 744.219 239 743.719 240C743.719 241.5 743.719 242.5 743.719 243.5ZM748.219 160.5C747.219 159.5 746.219 159 745.719 159C744.719 159 743.719 159.5 743.719 160C743.719 160.5 744.219 160.5 746.219 160.5C746.719 160.5 747.219 160.5 748.219 160.5ZM747.719 199L746.219 198C745.719 198 746.219 200.5 747.719 199ZM746.219 181C747.719 182.5 748.219 180 746.219 181V181ZM746.219 152.5C747.719 154 748.219 151 746.219 152.5V152.5ZM747.219 93C746.219 91 748.719 91.5 747.219 93V93ZM757.219 234C759.219 231.5 761.719 230 763.219 227C761.719 226.5 760.719 226 759.719 226C756.219 226 755.719 229.5 757.219 234ZM765.719 97.5V96.5C764.719 96 763.719 96 762.719 96C760.719 96 758.719 97 757.219 99C758.719 100.5 759.719 101 761.219 101C762.719 101 764.219 100 765.719 97.5ZM775.219 217.5C776.719 219 779.219 220.5 781.219 221.5V220C780.719 216.5 779.719 211 779.219 204C778.219 198.5 777.219 195 775.719 192.5C774.719 189.5 774.219 186.5 774.219 183C774.719 179 774.219 175 773.219 170.5L769.719 151.5C769.219 149 768.719 146.5 767.719 143C767.719 144 767.719 145.5 767.719 147C767.719 150 767.719 153.5 767.219 157C766.719 158 766.219 160 765.719 163C765.219 165.5 764.719 167.5 764.219 169L762.219 180C761.719 183 761.219 187.5 760.219 193C759.219 199 758.219 203 757.719 206L757.219 209.5L760.719 211C763.219 212.5 765.219 213 766.719 213.5C769.719 214.5 772.719 216 775.219 217.5ZM769.219 238C769.719 238.5 770.719 239 771.719 239C772.719 239 773.719 238.5 774.719 238C773.719 237 772.719 236.5 771.719 236.5C770.719 236.5 770.219 237 769.219 238ZM795.719 182C798.219 180 797.219 177.5 796.219 177.5C795.719 177.5 795.219 178.5 795.719 182ZM798.219 200C800.719 198.5 799.719 195.5 798.719 195.5C798.219 195.5 797.719 197 798.219 200ZM799.219 262C798.219 260 800.719 260.5 799.219 262V262ZM805.719 241.5C810.219 239.5 806.219 237.5 802.719 237.5C801.719 237.5 800.719 237.5 800.219 238C800.719 240.5 801.719 242 803.719 242C804.219 242 804.719 242 805.719 241.5ZM812.719 277C816.219 274.5 816.719 272.5 813.719 270.5C810.219 272 809.719 274 812.719 277ZM822.219 351.5C827.219 350.5 827.719 349.5 823.719 348.5C817.719 349 817.219 350 822.219 351.5ZM823.719 286L825.719 284C825.719 283.5 825.219 283.5 824.219 283.5C822.719 283.5 820.719 284.5 823.719 286ZM824.219 312C826.719 310.5 824.719 309.5 823.219 309.5C822.719 309.5 821.719 309.5 824.219 312ZM827.219 374L828.719 372.5C828.219 372 825.719 372.5 827.219 374ZM826.219 347C826.219 348 826.719 348.5 826.719 348.5C827.219 348.5 828.719 346.5 826.219 347ZM835.219 382.5C836.219 380.5 834.719 380 833.719 380C832.719 380 831.719 381 835.219 382.5ZM831.219 360C832.219 361 833.219 361.5 834.219 361.5C835.219 361.5 836.219 361 837.219 360.5C836.219 359.5 835.219 359 834.219 359C833.219 359 832.219 359 831.219 360ZM814.719 206C814.219 205.5 813.719 205.5 812.719 205.5C811.719 205.5 810.719 206.5 809.219 208.5C810.719 209.5 811.719 210.5 812.719 210.5C813.719 210.5 814.719 209.5 815.219 208.5L814.719 206ZM816.719 246.5L818.219 245C817.719 244.5 815.219 245 816.719 246.5ZM816.219 292L817.719 293.5C818.219 293 817.719 290.5 816.219 292ZM827.219 306.5L828.719 305C828.219 304.5 825.719 305 827.219 306.5ZM826.219 282C826.219 283 826.719 283.5 826.719 283.5C827.219 283.5 828.719 281.5 826.219 282ZM746.719 78L753.219 69.5C752.719 68 751.719 67.5 750.719 67.5C747.219 67.5 743.719 74.5 746.719 78ZM758.719 148C755.719 149 755.219 151 757.219 154.5C758.219 152.5 758.719 150.5 758.719 148ZM763.719 74.5C763.219 73.5 762.219 73 761.219 73C760.219 73 759.219 73.5 759.219 74C759.719 74.5 760.219 75 761.719 75C762.219 75 762.719 75 763.719 74.5ZM763.719 82.5C763.219 81.5 762.219 81 761.219 81C760.219 81 759.219 81.5 759.219 82C759.719 82.5 760.219 82.5 761.719 82.5C762.219 82.5 762.719 82.5 763.719 82.5ZM803.719 175C809.219 173 808.719 171 802.719 169C798.719 170.5 799.219 172.5 803.719 175ZM765.719 58C764.719 57.5 763.719 57 762.719 57C760.719 57 758.719 58 757.219 60C758.719 61.5 759.719 62 761.219 62C762.719 62 764.719 60.5 765.719 58ZM776.719 89.5C774.219 89.5 766.219 91 771.719 93.5C774.719 93.5 776.719 93 776.719 89.5ZM775.219 60C773.719 61.5 776.219 62 775.219 60V60ZM776.219 133.5C774.219 134.5 774.719 132 776.219 133.5V133.5ZM785.719 148.5C787.719 146.5 787.719 145 785.719 143C784.219 144.5 784.219 146.5 785.719 148.5ZM787.719 206.5C788.219 207 788.219 207 788.719 207C790.219 207 790.219 204 788.719 204C788.719 204 788.219 204 787.719 206.5ZM789.719 165.5C790.719 167.5 791.719 169 793.219 169C794.219 169 795.219 168 796.219 166.5C795.219 164.5 793.719 164 792.719 164C791.719 164 790.719 164.5 789.719 165.5ZM796.719 244C795.719 242 798.219 242.5 796.719 244V244ZM761.719 31C764.219 29.5 762.719 28.5 760.719 28.5C760.219 28.5 759.219 28.5 761.719 31ZM775.219 30.5L776.719 29C776.219 28.5 773.719 29 775.219 30.5ZM776.219 129L775.219 127.5C774.219 128 774.719 130.5 776.219 129ZM777.219 69C778.719 70.5 779.219 68 777.219 69V69ZM786.719 64.5C787.219 61.5 786.719 60.5 786.219 60.5C785.219 60.5 784.219 63 786.719 64.5ZM788.719 119C787.719 117 790.219 117.5 788.719 119V119ZM792.719 80.5L792.219 78C786.219 78.5 785.719 79.5 792.719 80.5ZM861.719 392V394C862.219 395 862.719 396 861.719 398L860.219 398.5C858.719 398.5 857.719 398.5 856.719 398H840.719C837.719 398.5 834.719 399 831.719 399C827.719 399 823.719 398.5 819.719 398L809.719 398.5C808.219 399 806.719 399.5 805.219 399.5C804.219 399.5 803.219 399 801.719 396.5C802.219 394.5 802.219 393 802.219 389C804.719 387.5 807.219 386.5 809.719 385H809.219C808.219 382 807.719 379 807.719 376C807.719 373 807.719 369 806.719 360.5V360C804.719 353.5 803.219 346.5 802.719 339.5C802.719 338 802.719 336.5 802.219 335L801.219 328C798.219 318.5 796.219 308 795.219 298C794.719 292.5 794.219 289 792.719 286.5C792.219 283.5 791.719 280.5 791.219 275.5C788.719 274 784.719 272 779.219 269C776.219 267 772.219 265 767.719 263C763.219 261.5 758.719 260 755.219 258L753.719 257C752.219 256.5 751.219 256 749.719 255.5C749.219 258 748.719 261.5 747.719 265C746.219 269 745.719 273.5 745.719 279.5C746.219 283 745.219 287 743.719 291C742.719 293.5 742.219 295.5 742.219 297C742.219 300.5 742.219 303.5 741.219 307C741.219 309.5 740.219 312 739.719 314.5L739.219 316.5C739.219 319.5 738.219 324 736.719 330.5C735.719 333.5 735.219 336.5 734.719 339C734.219 342 733.719 345 734.219 348C734.219 351 733.719 354 732.219 357C732.219 358.5 731.719 360.5 731.219 363.5L730.219 369.5C729.219 375 728.219 380.5 727.219 385.5L733.719 388.5C735.219 389 735.719 391 734.719 392L733.219 399C731.719 399 730.219 399 729.219 398.5C728.219 398.5 726.719 398.5 725.219 398H681.219C680.219 399 678.719 399 677.219 399C676.719 399 676.219 399 675.719 399C674.719 399 674.219 397 674.719 396C674.719 395.5 674.219 393 674.719 389.5C675.719 388 677.219 388 678.719 388L683.719 385L685.719 371C686.219 361.5 687.219 351.5 689.719 342.5L690.219 340.5C690.219 336.5 691.219 332 692.719 327.5C694.219 322.5 694.719 318.5 694.719 314.5C695.719 306.5 696.219 301.5 697.219 299L697.719 295C698.219 291.5 698.719 289 699.219 287.5C699.719 284.5 700.719 280.5 701.719 275.5C702.719 270.5 703.719 267 704.219 264L707.219 245C708.219 240.5 708.719 236 708.219 232C708.219 229 708.719 226 709.719 223C711.219 220.5 712.219 216.5 712.719 211C713.719 204 714.219 199 714.719 195.5L719.219 171C719.719 168 720.219 166 720.219 165C722.719 156 724.719 147 724.719 138C724.719 134.5 725.219 131.5 726.219 129C727.219 126.5 728.219 122.5 728.719 117C729.719 109 730.719 100.5 732.719 92.5C734.219 87 735.219 81.5 735.719 76C736.219 70 736.719 64.5 738.219 59C739.219 56 739.719 53.5 739.719 51C740.219 46 740.219 42 740.219 39C740.219 36.5 740.719 34 741.219 31.5C740.719 28.5 739.719 26 739.219 23V21C738.719 19 738.719 16.5 739.219 14.5H740.719C743.719 14 749.219 14 752.719 14C753.719 14 754.219 14 754.719 14C755.219 14 755.719 14 756.219 14C757.719 14 759.219 14 760.719 13.5C763.219 13 765.219 13 767.219 13C769.219 13 771.219 13 773.219 13.5C776.219 14 783.719 14 789.719 14.5H798.219V23L796.719 23.5C795.719 27 794.719 30.5 793.219 33.5L797.219 58C798.719 61 799.219 64 798.719 68L802.219 87C803.219 92 804.219 96 804.719 99V100.5C806.719 107 807.719 113.5 808.219 120.5L809.219 124C810.719 128 811.719 132 811.219 135.5C811.219 137.5 811.219 139.5 811.719 141L813.219 150C814.719 157 816.719 164 816.719 171L818.219 179C818.219 180 818.719 181.5 819.219 182.5C821.719 186.5 822.219 190.5 821.719 195C821.719 198.5 822.219 202 823.219 205L823.719 209C824.219 212 825.219 216 826.219 221.5C827.219 227.5 828.219 231.5 828.719 234.5L830.719 246C831.219 247 831.719 249.5 832.219 252C832.719 254.5 833.219 256.5 833.719 258C834.219 261.5 834.219 264.5 834.219 268C834.219 271.5 834.719 274.5 836.219 277.5C838.219 285 840.219 292.5 840.219 300C840.219 304 842.219 317 844.219 321C845.219 324 845.719 327 845.719 330.5C845.219 333.5 845.719 337.5 847.719 341.5L849.219 344.5C850.719 348.5 851.219 352 850.719 354.5C850.219 358.5 850.719 363 852.219 367.5C853.719 370.5 854.219 376 854.219 386C855.719 386.5 857.719 387.5 860.719 388.5C862.219 389 862.719 391 861.719 392ZM956.195 315.5C955.195 312 955.695 313 956.195 315.5V315.5ZM958.695 355.5C960.195 355.5 966.195 353 962.695 351C961.195 349 959.695 348.5 958.195 348.5C956.695 348.5 955.195 349.5 953.695 353.5C955.195 355 956.695 355.5 958.695 355.5ZM976.695 383.5L974.195 381.5C973.195 382 973.695 385 975.195 385C975.195 385 975.695 384.5 976.695 383.5ZM982.695 347.5C982.195 347 981.695 347 981.195 347C980.695 347 979.195 347.5 977.695 348.5C978.695 349.5 979.695 350 981.195 350C981.195 350 981.695 350 982.195 350L982.695 347.5ZM982.195 283.5L982.695 281C978.195 281 978.195 282 982.195 283.5ZM982.195 311V307.5C982.695 305.5 982.695 303.5 982.695 301.5C981.195 301.5 979.695 302.5 979.195 306C979.695 310.5 980.695 311.5 982.195 311ZM981.695 364V363C979.695 363.5 978.695 365 980.695 369C982.695 367.5 984.695 366 985.195 364H981.695ZM1008.2 368.5C1006.7 370 1009.2 370.5 1008.2 368.5V368.5ZM1045.7 383C1044.7 382 1043.7 381.5 1043.2 381.5C1042.2 381.5 1041.2 382 1041.2 382.5C1041.2 383 1042.2 383 1043.7 383C1044.2 383 1044.7 383 1045.7 383ZM1048.2 375.5C1048.7 377 1049.2 377 1049.7 377C1050.7 377 1051.2 374.5 1049.2 374.5C1048.7 374.5 1048.2 374.5 1048.2 375.5ZM1060.2 386C1059.2 384 1061.7 384.5 1060.2 386V386ZM1075.7 376.5C1079.7 374.5 1079.7 373.5 1075.2 373.5C1070.7 374.5 1070.7 375.5 1075.7 376.5ZM1101.7 372.5L1100.2 371C1099.7 371.5 1100.2 374 1101.7 372.5ZM963.195 203.5C962.695 202 961.695 201 960.695 201C959.695 201 958.195 202 957.195 203.5C958.195 205.5 959.195 206.5 960.195 206.5C961.195 206.5 962.195 205.5 963.195 203.5ZM964.195 270L965.695 269C965.695 268 962.695 268.5 964.195 270ZM967.195 298.5L968.195 297C968.195 296.5 965.695 297 967.195 298.5ZM966.695 339C968.195 340.5 968.195 338 966.695 339V339ZM967.195 383.5C966.695 384 976.695 375 972.695 376.5C968.695 377.5 964.695 379 967.195 383.5ZM974.695 357.5L976.195 356C975.695 355.5 973.195 356 974.695 357.5ZM976.195 355.5C980.195 355 978.695 352 978.695 350C975.195 350.5 976.695 353.5 976.195 355.5ZM982.195 373.5C987.695 372.5 988.195 371.5 983.195 371C977.695 371 977.695 372 982.195 373.5ZM994.695 382L996.195 383.5C996.695 383 996.195 380.5 994.695 382ZM996.195 388.5C994.695 386.5 997.695 387 996.195 388.5V388.5ZM960.195 155C957.695 157 957.695 159.5 961.195 161.5C964.195 159 964.195 156.5 960.195 155ZM964.695 244C962.695 242.5 960.695 242.5 958.195 242.5C959.195 244 960.195 245 961.195 245C962.195 245 963.195 244.5 964.695 244ZM970.195 229C965.195 230 964.695 231 969.195 232C974.695 231.5 975.195 230.5 970.195 229ZM967.195 253C968.695 254.5 969.695 255 970.695 255C971.695 255 972.695 254 973.695 252C972.695 251 971.695 250 970.695 250C969.695 250 968.695 251 967.195 253ZM974.195 213C973.195 212 972.195 211.5 971.195 211.5C970.695 211.5 969.695 212 968.695 213C969.695 213.5 970.195 214 971.195 214C972.195 214 973.195 214 974.195 213ZM1057.2 354.5L1060.7 353.5C1062.7 353 1064.2 352.5 1065.7 352.5C1067.7 352.5 1069.2 353 1070.7 353.5C1073.2 354.5 1075.7 354.5 1077.7 351.5C1077.2 348.5 1077.2 345 1077.7 342C1078.2 341 1078.2 339.5 1078.2 338V324.5C1077.7 318 1077.7 313.5 1077.7 310.5V308.5C1077.7 306 1077.2 303.5 1077.2 301C1077.2 297.5 1077.7 294 1078.2 291C1078.2 289.5 1078.2 287.5 1077.7 285C1076.7 281 1076.7 277 1077.7 273C1078.2 270.5 1078.2 268 1078.2 265.5V263.5C1078.2 262 1078.2 260 1078.2 258.5C1077.7 255 1077.7 251.5 1077.7 248.5C1077.7 244 1078.2 240.5 1078.2 238L1077.7 225.5C1076.2 221.5 1076.2 217.5 1077.7 213C1078.7 210 1078.7 207 1077.2 203.5C1076.2 203 1074.7 202.5 1073.2 201.5L1067.2 198.5C1064.2 197 1062.2 196 1061.2 195C1059.2 194 1057.7 193.5 1056.7 192.5C1054.2 190.5 1051.2 189 1048.2 188C1046.2 187.5 1044.7 187.5 1043.7 187C1039.7 185 1036.7 183.5 1034.2 183C1032.2 182 1030.7 181 1029.7 180C1028.2 179 1026.2 178 1023.2 176.5C1021.7 176 1020.2 175 1018.7 174C1014.2 171.5 1010.7 169 1008.2 168L994.195 161C992.695 160.5 991.695 160 990.695 162L990.195 173C990.195 176 990.195 180.5 990.195 186C990.195 192 990.195 196 990.195 199L989.695 204.5L990.195 213C991.695 217.5 991.695 221.5 989.695 228V239.5C990.195 242 990.195 245 990.195 248.5C990.195 251.5 990.195 255 989.695 260V269C990.195 270 990.195 271.5 990.195 273C991.195 277 991.195 281 990.195 285C989.695 287.5 989.695 289.5 990.195 291C990.695 294 990.695 297.5 990.695 301C990.695 303.5 990.695 306 990.195 308.5V310.5C990.695 313.5 990.195 318 989.695 325.5L990.195 342C991.195 345 991.195 348.5 990.195 351.5C990.195 352.5 990.195 353.5 992.695 354.5C997.695 354 1002.2 353.5 1006.2 353.5C1009.2 353.5 1012.7 354 1015.7 354.5C1018.7 355 1023.2 355 1029.7 355C1032.7 355 1035.2 355 1036.7 354.5C1038.2 354 1039.7 354 1041.2 354C1043.2 354 1044.7 354 1046.2 354.5C1047.2 355 1048.7 355 1050.2 355H1052.2C1054.2 355 1055.7 355 1057.2 354.5ZM963.195 93C964.195 94.5 964.695 95 965.195 95C966.195 95 966.195 92 964.195 92C963.695 92 963.695 92 963.195 93ZM979.695 127C979.695 127 974.695 124 971.195 124C969.695 124 968.695 124.5 968.695 127C969.195 128.5 970.195 129 972.195 129C975.195 129 979.195 127.5 979.695 127ZM976.195 192.5L974.695 191.5C974.195 191.5 974.695 194 976.195 192.5ZM1040.2 151.5L1038.7 150C1038.2 150.5 1038.7 153 1040.2 151.5ZM1043.7 154C1041.7 155.5 1039.7 157.5 1038.2 159C1039.7 159.5 1041.2 160 1042.7 160C1045.2 160 1046.2 158.5 1043.7 154ZM1047.2 165C1045.7 163.5 1044.7 162.5 1043.2 162.5C1042.2 162.5 1041.2 163.5 1040.7 165C1041.7 167 1042.7 167.5 1043.7 167.5C1044.7 167.5 1046.2 167 1047.2 165ZM1050.7 162L1049.2 160.5C1048.7 161 1049.2 163.5 1050.7 162ZM1053.2 168C1055.7 166.5 1054.7 165.5 1053.7 165.5C1052.7 165.5 1051.2 166.5 1053.2 168ZM1084.7 190C1087.7 187 1087.7 185 1084.2 183.5C1080.7 185.5 1080.7 188 1084.7 190ZM1087.7 209.5C1086.2 211 1088.7 211.5 1087.7 209.5V209.5ZM1089.7 303C1091.2 304.5 1091.7 302 1089.7 303V303ZM1089.7 324.5C1092.2 323 1091.2 320 1090.7 320C1089.7 320 1089.2 321.5 1089.7 324.5ZM1089.7 172C1091.2 173.5 1091.7 171 1089.7 172V172ZM1094.2 260C1100.7 258 1100.7 256 1094.7 254.5C1088.2 256 1088.2 257.5 1094.2 260ZM1101.2 355C1100.2 353 1102.7 353.5 1101.2 355V355ZM1093.7 220.5C1095.7 218.5 1097.7 217 1099.7 215.5C1097.7 214.5 1096.2 214.5 1095.2 214.5C1092.7 214.5 1091.7 216 1093.7 220.5ZM1094.2 196C1096.7 195 1095.7 194 1094.7 194C1093.7 194 1092.2 194.5 1094.2 196ZM1104.2 177.5L1103.2 177C1102.7 178 1104.7 178.5 1104.2 177.5ZM1109.2 245.5C1108.2 245 1107.2 245 1106.2 245C1104.2 245 1102.2 246 1100.7 248C1102.2 249.5 1103.7 250 1104.7 250C1106.2 250 1108.2 248.5 1109.2 245.5ZM1101.2 269.5C1103.2 270.5 1104.7 271.5 1106.2 271.5C1108.2 271.5 1109.2 270 1109.7 267.5C1109.2 265.5 1108.2 264.5 1107.2 264.5C1104.7 264.5 1101.7 268.5 1101.2 269.5ZM1109.7 205.5C1107.7 205 1106.7 204.5 1105.2 204.5C1102.7 204.5 1102.2 207 1103.7 211.5C1105.7 209.5 1107.7 207.5 1109.7 205.5ZM1105.7 225C1111.2 224 1111.2 223 1106.7 222C1101.2 222.5 1100.7 223.5 1105.7 225ZM960.195 29C957.695 31.5 957.695 33.5 961.195 35.5C964.195 33 964.195 31 960.195 29ZM973.695 62C976.695 61.5 976.195 58.5 975.195 58.5C974.695 58 974.195 59 973.695 62ZM975.195 44.5C974.695 42 978.195 44.5 975.195 44.5V44.5ZM978.695 79C978.195 78.5 977.195 78 976.195 78C975.195 78 974.195 78.5 973.195 79.5C973.695 82 974.195 83 975.195 83C976.195 83 977.195 81.5 978.695 79ZM978.695 46L976.695 45C976.195 45.5 976.695 46.5 977.695 46.5C978.195 46.5 978.195 46.5 978.695 46ZM982.695 84C982.195 83.5 982.195 83.5 981.695 83.5C980.695 83.5 979.695 84 982.695 84ZM985.695 142C984.695 140 987.195 140.5 985.695 142V142ZM984.695 51L993.695 50.5C995.195 49 995.695 47.5 993.195 47.5C990.695 47 986.195 49 984.695 51ZM991.195 140C994.195 138.5 993.195 137.5 992.195 137.5C990.695 137.5 989.695 138 991.195 140ZM1005.7 131C1003.7 130 1001.7 129.5 999.695 129.5C1000.2 131 1001.2 132 1002.7 132C1003.2 132 1004.2 131.5 1005.7 131ZM1006.7 43C1007.2 38.5 1006.2 37 1003.7 37C1002.7 37 1001.2 37.5 999.695 38C1002.7 39 1005.2 40.5 1006.7 43ZM1009.7 43.5L1007.7 42.5C1007.2 42.5 1007.7 44 1008.7 44C1008.7 44 1009.2 44 1009.7 43.5ZM1017.7 134C1017.2 133 1016.2 133 1016.2 133C1014.7 133 1014.7 136 1017.7 134ZM1027.2 165C1027.7 162 1027.2 161 1026.7 161C1025.7 161 1024.7 163.5 1027.2 165ZM1028.2 146.5C1029.7 148 1030.2 145.5 1028.2 146.5V146.5ZM1038.2 174L1039.7 175.5C1040.2 175 1039.7 172.5 1038.2 174ZM994.695 31C993.695 30 992.695 29.5 992.195 29.5C991.195 29.5 990.195 29.5 989.195 30.5C990.195 31.5 990.695 32 991.695 32C992.695 32 993.695 31.5 994.695 31ZM998.195 129.5C998.195 127 1001.2 129.5 998.195 129.5V129.5ZM1001.2 142C995.695 143 995.695 144 1000.2 144.5C1005.7 144.5 1006.2 143.5 1001.2 142ZM1003.2 150.5C1004.2 148.5 1002.7 147.5 1001.7 147.5C1000.7 147.5 999.695 148.5 1003.2 150.5ZM1017.2 28.5L1015.7 27C1015.2 27.5 1015.7 30 1017.2 28.5ZM1030.7 38.5C1030.2 38 1029.7 38 1029.7 38C1027.7 38 1027.7 41 1028.7 41C1029.2 41 1029.7 40.5 1030.7 38.5ZM1046.2 28.5C1047.7 30 1048.2 27.5 1046.2 28.5V28.5ZM1056.7 35C1056.2 39.5 1057.7 41.5 1060.7 41C1060.2 39 1060.7 34 1058.7 34C1058.2 34 1057.2 34.5 1056.7 35ZM1069.7 23C1069.2 24.5 1069.2 27 1069.7 29.5C1071.2 27.5 1073.2 26 1075.2 24L1069.7 23ZM1087.2 33.5C1086.2 32.5 1085.2 32 1084.2 32C1083.7 32 1082.7 32.5 1081.7 33C1082.7 34 1083.2 34.5 1084.2 34.5C1085.2 34.5 1086.2 34 1087.2 33.5ZM1109.2 39C1107.7 37 1110.7 37.5 1109.2 39V39ZM1122.2 223.5C1122.7 226.5 1122.7 230 1122.2 233C1121.2 237 1120.7 241 1121.2 245.5V265C1121.2 267.5 1121.2 271.5 1121.2 277C1121.7 282 1121.7 286 1121.7 288.5C1122.2 290.5 1122.2 293 1122.2 296.5V300.5C1122.7 303 1122.2 308 1121.7 316C1121.2 319.5 1121.2 324 1121.7 328.5C1122.2 333.5 1122.7 338 1122.2 342V344.5C1122.2 346.5 1122.7 349 1122.7 351.5C1122.7 357.5 1122.2 364 1121.2 372.5V384C1121.2 387 1120.2 388.5 1116.7 388.5C1116.2 389.5 1107.2 398 1106.7 398.5C1105.7 398.5 1104.7 399 1103.2 399C1101.2 399 1099.2 398.5 1097.2 398L1093.2 399.5C1090.2 399.5 1087.2 399.5 1084.2 399.5C1081.7 399 1077.7 398.5 1072.2 398C1069.7 398 1067.2 398 1064.7 398C1059.2 398 1053.2 398 1047.7 398C1044.7 397.5 1042.2 397.5 1039.2 397.5C1036.7 397.5 1033.7 397.5 1030.7 398C1022.2 398 1014.2 398 1005.7 398C1003.7 398 1001.7 397.5 1000.2 397.5C997.695 397.5 995.695 398 993.695 398.5C992.695 398.5 991.195 398.5 989.695 398.5C987.695 398.5 986.195 398.5 984.695 398.5C980.195 397.5 975.195 397.5 970.695 397.5C966.195 397.5 962.195 397.5 957.695 398C956.695 398 954.695 398.5 951.695 398.5H946.695C945.195 399 943.695 398.5 942.695 399C940.195 399.5 937.695 397.5 938.695 395C938.695 393.5 939.195 392.5 938.695 390.5C938.195 388.5 940.195 386 942.695 386.5C943.195 387 945.195 384.5 947.195 383.5V372.5C946.195 364 945.695 357.5 945.695 351.5C945.695 349 945.695 346.5 946.195 344.5V342C945.695 338 945.695 333.5 946.695 328.5C947.195 324 946.695 319.5 946.195 316C945.695 308 945.695 303 946.195 300.5V296.5C946.195 293 946.195 290.5 946.195 288.5C946.195 286 946.695 282 946.695 277C947.195 271.5 947.195 267.5 947.195 265V245.5C947.195 241 947.195 237 946.195 233C945.195 230 945.195 226.5 946.195 223.5C946.695 221 947.195 217 947.195 211.5C946.695 204.5 946.195 199.5 946.195 196L946.695 171C946.695 168 946.695 166 946.695 165C947.195 160.5 947.695 156.5 947.695 152.5C947.695 147.5 947.195 142.5 946.695 138C946.195 134.5 946.195 131.5 946.695 129C947.195 126 947.195 122 946.695 117C946.695 111.5 946.695 106.5 946.695 102.5C946.695 98.5 946.695 95 946.695 92C947.195 89 947.195 86.5 947.195 83.5C947.195 80.5 947.195 78 946.695 75.5C946.695 71.5 946.695 68.5 946.695 65.5C946.695 62.5 946.695 60 946.695 58C947.195 55.5 947.195 53 946.695 50.5C946.195 45 946.195 41.5 945.695 38.5C944.695 35.5 944.695 32.5 945.695 29.5V28.5C944.695 27.5 943.195 26.5 941.695 26.5C939.695 26 938.195 24.5 939.195 16.5C939.195 15 940.695 14.5 942.195 14.5C942.695 14.5 943.195 14.5 943.695 14.5C945.695 15.5 947.195 15.5 948.695 15.5C954.695 15.5 960.695 15.5 966.695 15.5C970.195 14.5 973.695 14.5 976.695 14.5C978.695 14.5 980.695 14.5 982.195 15C983.695 15 985.695 15.5 987.195 15.5C990.195 15.5 992.695 15 995.195 14C996.195 13.5 997.695 13.5 999.695 13.5C1001.2 13.5 1002.7 13.5 1004.7 14L1008.2 15C1009.7 15.5 1011.2 15.5 1012.2 15.5H1016.2C1017.2 15.5 1018.2 15.5 1019.7 15C1021.2 14.5 1022.7 14.5 1024.2 14.5C1025.7 14.5 1027.2 14.5 1029.2 15C1030.2 15.5 1032.7 15.5 1036.2 15.5C1042.2 15.5 1046.7 15.5 1050.2 15C1053.2 14.5 1056.2 14.5 1059.7 14.5C1063.7 14.5 1068.2 14.5 1075.7 15.5H1082.7C1085.7 14.5 1088.7 14.5 1093.2 14.5C1096.2 13.5 1099.7 13.5 1102.7 13.5C1104.7 13.5 1106.2 13.5 1108.7 13.5L1110.7 8.49997C1111.2 6.99999 1112.2 5.99998 1113.7 6.49997C1114.7 6.49997 1115.2 6.49997 1115.7 6.49997C1117.2 6.49997 1118.2 6.49997 1119.7 5.99998C1122.2 5.99998 1123.7 8.99997 1122.2 11C1120.7 15 1122.2 18.5 1121.2 24C1121.2 31 1121.2 38.5 1121.2 45.5C1121.2 52 1122.7 59.5 1119.7 68C1118.7 68.5 1118.2 68.5 1117.7 68.5C1112.7 68.5 1111.7 68 1110.2 62.5L1107.7 58.5C1103.2 58 1099.2 58 1095.2 58C1090.2 58 1085.7 58.5 1080.7 59C1077.7 59 1074.7 59 1071.7 59C1070.2 58.5 1068.2 58.5 1065.7 58.5C1063.7 58.5 1061.7 58.5 1059.7 58.5C1054.2 59 1049.7 59 1045.2 59C1041.2 59 1037.7 59 1035.2 58.5C1029.7 58.5 1023.7 58.5 1018.2 58.5C1014.2 59 1011.2 59 1008.2 59C1005.2 59 1002.7 59 1001.2 58.5C999.695 58.5 998.195 58.5 996.695 58.5C995.695 58.5 994.695 58.5 991.695 62L989.695 68L990.695 76.5C991.195 80 991.195 83 990.695 86C990.195 87 990.195 88.5 989.695 90.5V98.5C990.195 102 990.195 105 990.695 107C990.695 108.5 990.695 110 991.195 111.5C993.195 112.5 995.195 113.5 996.195 114.5C1000.2 117.5 1005.2 119.5 1010.7 120C1014.7 121 1024.2 127 1027.2 129.5C1032.2 133 1037.7 135.5 1043.2 138C1049.7 140 1056.2 142.5 1062.2 146.5C1063.2 147 1064.7 147.5 1066.7 148.5C1068.2 149 1069.7 149.5 1070.7 150C1076.7 152 1081.2 154 1084.7 157C1086.2 159 1089.2 161 1092.7 162C1094.2 162 1096.2 163 1098.7 165C1101.7 167.5 1104.7 169 1106.7 169.5C1109.7 170.5 1112.2 171.5 1114.2 172.5C1114.7 172.5 1115.2 172.5 1115.7 172.5C1117.2 172.5 1118.2 172.5 1119.7 173.5C1121.7 175 1121.7 177 1122.2 182C1122.7 183.5 1122.7 184.5 1121.7 188V196C1121.7 199.5 1121.7 204.5 1121.2 211.5C1121.2 217 1121.2 221 1122.2 223.5ZM1347.72 368.5C1350.72 367 1350.72 366 1347.72 368.5V368.5ZM1349.72 308.5C1348.22 307 1351.22 307 1349.72 308.5V308.5ZM1372.72 347.5C1371.72 345.5 1374.22 346 1372.72 347.5V347.5ZM1216.72 120.5L1216.22 121C1217.22 121.5 1218.22 121 1219.22 119.5C1218.72 117 1217.72 116 1216.72 117V120.5ZM1350.72 266.5C1353.72 264 1353.72 261.5 1348.72 261.5L1350.72 266.5ZM1361.22 295.5C1362.72 297 1363.22 294 1361.22 295.5V295.5ZM1361.22 316.5C1363.72 315 1362.72 312.5 1361.72 312.5C1361.22 312.5 1360.72 313.5 1361.22 316.5ZM1370.72 386.5C1373.22 385 1372.22 384 1371.22 384C1370.22 384 1368.72 385 1370.72 386.5ZM1373.22 365L1371.72 363.5C1371.22 364 1371.72 366.5 1373.22 365ZM1348.22 141C1349.72 142.5 1350.22 139.5 1348.22 141V141ZM1353.22 131C1352.72 130 1352.22 129.5 1351.72 129.5C1350.22 129.5 1350.22 133 1353.22 131ZM1352.72 217.5C1350.72 218.5 1351.22 216 1352.72 217.5V217.5ZM1352.72 244L1351.22 242.5C1350.72 242.5 1351.22 245.5 1352.72 244ZM1356.22 181.5C1359.22 179 1358.72 176.5 1355.72 175.5C1352.22 177.5 1352.22 179.5 1356.22 181.5ZM1359.22 201.5C1357.72 203 1360.22 203.5 1359.22 201.5V201.5ZM1365.72 252C1372.22 250 1372.22 248 1366.22 246.5C1359.72 248 1359.22 250 1365.72 252ZM1371.22 207.5C1369.22 206.5 1367.72 206.5 1366.22 206.5C1364.22 206.5 1363.22 208 1365.22 212.5C1367.22 210.5 1369.22 209 1371.22 207.5ZM1365.72 188C1368.22 187 1367.22 185.5 1366.22 185.5C1365.22 185.5 1363.72 186.5 1365.72 188ZM1374.72 238V242C1374.72 240.5 1374.72 239 1374.72 238ZM1375.22 261.5L1375.72 258.5C1374.22 259.5 1373.22 261 1375.22 261.5ZM1375.22 214.5C1373.22 215.5 1373.22 214.5 1375.22 214.5V214.5ZM1375.72 197C1373.72 197.5 1373.72 199.5 1375.22 203.5V202.5C1375.22 201 1375.22 199 1375.72 197ZM1217.22 75.5C1217.22 77 1217.22 78.5 1216.72 80.5C1219.22 79 1219.72 77 1217.22 75.5ZM1221.22 37.5C1225.22 35.5 1225.22 33.5 1221.72 31C1218.22 32.5 1218.22 34.5 1221.22 37.5ZM1234.22 22.5H1229.72C1229.22 24 1229.72 25.5 1232.22 27C1234.22 25.5 1234.72 24 1234.22 22.5ZM1234.72 84.5C1235.22 86 1235.72 86.5 1236.22 86.5C1237.22 86.5 1237.22 83.5 1235.22 83.5C1234.72 83.5 1234.72 83.5 1234.72 84.5ZM1243.72 121L1244.72 116C1244.22 116 1243.22 116 1242.22 116C1240.72 116 1239.72 116.5 1239.72 118.5C1240.22 120.5 1241.72 121 1243.72 121ZM1246.22 36C1245.72 34 1249.22 36 1246.22 36V36ZM1249.72 37.5L1248.22 36.5C1247.72 37 1247.72 38 1248.72 38C1249.22 38 1249.22 38 1249.72 37.5ZM1258.72 46C1262.72 43.5 1269.22 39.5 1264.22 39C1260.22 38.5 1251.22 43.5 1258.72 46ZM1261.22 21.5L1260.22 22C1261.22 23 1262.22 23.5 1263.22 23.5C1263.72 23.5 1264.72 23 1264.72 21.5H1261.22ZM1277.72 34.5C1278.72 30 1277.72 28.5 1275.22 28.5C1274.22 28.5 1272.72 29 1270.72 29.5C1273.72 30.5 1276.22 32 1277.72 34.5ZM1280.72 35L1278.72 34C1278.22 34 1278.72 35.5 1279.72 35.5C1280.22 35.5 1280.22 35.5 1280.72 35ZM1301.72 30.5L1302.22 30C1301.72 29.5 1301.22 29.5 1300.72 29.5C1298.72 29.5 1298.72 32.5 1299.72 32.5C1300.22 32.5 1300.72 32 1301.72 30.5ZM1319.22 43L1317.72 41.5C1317.22 42 1317.72 44.5 1319.22 43ZM1327.72 26.5C1327.72 31 1328.72 33 1332.22 32.5C1331.72 30.5 1332.22 25.5 1329.72 25.5C1329.22 25.5 1328.72 26 1327.72 26.5ZM1352.22 72C1351.22 70 1353.72 70.5 1352.22 72V72ZM1350.22 155C1353.72 153 1352.22 152 1350.72 152C1349.72 152 1348.72 152.5 1348.72 153L1350.22 155ZM1355.72 111C1352.22 112.5 1352.22 114.5 1355.22 117.5C1358.72 115.5 1359.22 113 1355.72 111ZM1358.22 107.5C1357.22 106.5 1356.22 106 1355.72 106C1354.72 106 1353.72 106.5 1353.72 107C1353.72 107.5 1354.22 108 1356.22 108C1356.72 108 1357.22 108 1358.22 107.5ZM1359.22 141.5L1360.22 140C1360.22 139.5 1357.72 140 1359.22 141.5ZM1361.22 164C1362.72 165.5 1363.22 163 1361.22 164V164ZM1375.72 170V167.5C1373.72 169 1374.72 169.5 1375.72 170ZM1353.22 24.5C1353.72 25.5 1354.72 26 1355.72 26C1356.72 26 1357.72 25.5 1358.72 25C1357.72 24 1356.72 23.5 1355.72 23.5C1354.72 23.5 1354.22 23.5 1353.22 24.5ZM1350.72 45.5C1349.72 48 1351.22 49.5 1354.72 49.5C1360.72 46.5 1355.72 44.5 1352.72 44.5C1351.72 44.5 1350.72 45 1350.72 45.5ZM1359.22 88C1357.72 89.5 1360.22 90 1359.22 88V88ZM1367.22 65C1368.22 63 1366.72 62 1365.72 62C1364.72 62 1363.72 63 1367.22 65ZM1371.22 81C1371.22 78.5 1370.22 77.5 1369.22 77.5C1367.72 77.5 1365.72 79 1363.22 82.5C1364.22 84.5 1365.22 85.5 1366.22 85.5C1367.72 85.5 1369.22 84 1371.22 81ZM1368.72 143.5C1370.22 145 1370.72 142.5 1368.72 143.5V143.5ZM1391.22 388C1392.72 390.5 1392.72 394 1390.22 399C1388.72 399 1387.72 399.5 1386.22 399.5C1383.22 399.5 1380.22 399 1377.72 398.5C1374.72 398 1372.22 397.5 1369.72 397.5L1364.22 398C1362.72 397.5 1361.22 397.5 1359.72 397.5C1355.22 397.5 1351.22 398 1346.72 398.5C1345.72 399 1344.72 399 1343.72 399C1341.22 399 1338.72 398.5 1336.22 398.5C1335.72 398.5 1334.72 398.5 1334.22 398.5C1332.72 399 1330.72 397 1331.22 395.5C1331.22 393.5 1331.22 392 1331.22 390.5C1331.22 389 1332.22 387.5 1336.72 386.5L1340.22 383.5V376.5C1339.22 368.5 1338.72 361.5 1338.72 355.5C1338.72 353 1339.22 350.5 1339.22 348.5V346C1339.22 342 1339.22 337.5 1340.22 332.5C1340.22 328 1340.22 323.5 1339.72 320C1339.22 312 1339.22 307 1339.22 304.5V300C1339.22 293.5 1339.72 286.5 1340.22 280.5C1340.22 275.5 1340.22 271.5 1340.22 268.5L1340.72 248V244C1340.22 241.5 1340.22 239 1339.22 236.5C1338.72 233.5 1338.72 230.5 1339.22 227C1340.22 224.5 1340.22 221 1340.22 215.5C1340.22 208 1339.72 203 1339.72 199.5V174.5C1339.72 171.5 1339.72 169.5 1340.22 168.5C1340.22 166.5 1340.22 165 1340.72 163V148.5C1340.22 146 1340.22 143.5 1339.72 141.5C1339.72 138 1339.72 135 1339.72 132.5C1340.72 129.5 1340.72 125.5 1340.22 120.5C1339.72 115 1339.72 110 1339.72 106C1339.72 102 1339.72 98.5 1340.22 95.5C1340.22 94 1340.72 92.5 1340.72 91.5V82.5C1340.72 81 1340.22 80 1340.22 78.5C1340.22 73 1340.22 67 1340.22 61.5C1340.22 60 1340.72 58.5 1340.72 57.5C1338.72 57.5 1337.22 57.5 1335.72 58C1333.72 58.5 1331.72 58.5 1329.72 58.5C1327.72 58.5 1325.72 58.5 1323.72 58C1322.22 57.5 1320.72 57.5 1319.22 57.5C1318.72 57.5 1318.22 57.5 1317.72 57.5C1314.22 58 1311.22 58.5 1307.72 58.5C1305.22 58.5 1302.72 58 1299.72 58H1298.22C1297.22 58 1296.22 58 1294.72 58C1291.72 58 1288.22 58 1284.22 57.5C1280.72 57 1277.72 57 1275.22 57C1271.72 57 1268.72 57 1266.22 58C1263.22 58 1260.22 58 1257.22 58C1255.72 57.5 1254.22 57.5 1251.72 57.5V66C1251.72 67 1252.22 68.5 1252.22 69.5C1252.72 73.5 1252.72 76.5 1252.72 79.5C1252.72 82.5 1252.22 85 1252.22 87C1251.72 90 1251.72 92.5 1252.22 94.5C1252.72 100 1253.22 104 1253.72 106.5C1254.22 109.5 1254.22 113 1253.72 116L1253.22 117C1255.22 118.5 1258.72 120.5 1260.72 123.5C1260.72 126.5 1262.72 128.5 1261.22 131C1259.72 133 1257.72 133 1255.72 133C1255.22 133 1254.22 133 1253.72 133C1248.72 133 1244.22 131.5 1239.22 131H1216.22C1212.22 131 1208.22 131.5 1204.72 132C1202.72 132.5 1200.72 131.5 1200.72 130C1200.22 127.5 1199.22 124.5 1200.72 122.5C1202.72 119.5 1205.72 120 1208.22 117.5C1207.72 112.5 1207.72 109 1208.22 106C1209.22 101 1209.22 97 1207.72 93C1206.72 90.5 1206.72 87.5 1207.22 83L1208.22 80C1209.72 75.5 1209.72 71.5 1208.22 68.5C1207.72 65 1207.72 62 1208.72 59C1208.72 52 1208.72 44.5 1208.72 37.5C1208.22 35.5 1207.72 33 1207.72 30.5C1207.22 28.5 1208.22 27.5 1213.72 24C1214.72 22.5 1215.72 21.5 1217.72 17.5C1218.22 16 1219.72 15 1224.72 14.5H1235.72C1244.22 13.5 1251.22 13 1256.72 13C1259.72 13 1262.22 13 1264.22 13.5H1266.22C1267.72 13 1268.72 13 1270.22 13C1273.22 13 1276.22 13.5 1279.72 14C1281.72 14 1283.22 14 1285.22 14C1287.72 14 1290.22 14 1292.72 13.5C1297.72 13.5 1301.22 13 1304.22 13C1305.72 13 1307.22 13 1308.22 13.5H1312.22C1315.72 13.5 1318.22 13.5 1320.22 13.5C1322.72 13.5 1326.72 14 1331.72 14C1337.22 14.5 1341.22 14.5 1343.72 14.5H1363.22C1367.72 14.5 1371.22 14 1375.72 13.5C1377.22 13 1378.72 13 1380.22 13C1381.72 13 1383.22 13 1384.72 13.5C1385.72 13 1386.72 13 1387.72 13C1388.22 13 1388.72 13 1389.72 13.5C1392.72 15 1392.72 19 1389.72 25C1386.72 27 1385.22 27.5 1384.72 35.5C1385.22 38 1384.72 40.5 1384.72 43C1384.72 45 1383.72 46 1382.72 46L1383.72 69.5C1382.72 73.5 1382.72 77 1384.22 80C1384.72 83 1384.72 86.5 1384.22 89.5C1383.72 91 1383.22 93 1383.22 96.5C1383.22 103 1383.72 107.5 1383.72 110.5C1384.22 113.5 1384.72 117 1384.72 120C1384.72 124 1384.22 128.5 1383.72 133.5C1382.72 136.5 1382.72 140 1383.72 143C1384.22 146.5 1384.72 149.5 1384.72 153C1384.72 154.5 1384.22 156.5 1384.22 159C1384.22 162 1384.22 164 1383.72 165.5V176.5C1383.72 179.5 1383.72 184 1383.72 190C1383.72 195.5 1383.72 200 1383.72 202.5V206.5C1382.72 210 1383.22 213 1383.72 217C1385.22 221 1385.22 225.5 1383.72 229.5C1382.72 233.5 1382.72 237.5 1383.22 242C1383.72 244.5 1383.72 248 1383.72 252.5C1383.72 255.5 1383.72 258.5 1383.72 262.5C1382.72 266.5 1383.22 271.5 1383.72 277C1384.72 280.5 1384.72 284.5 1383.72 289C1383.22 291 1383.22 293 1383.72 295C1384.22 298 1384.22 301.5 1384.22 304.5C1384.22 307.5 1384.22 310 1383.72 312.5V314C1384.22 317.5 1383.72 322 1383.22 328.5C1383.22 331.5 1382.72 334.5 1382.72 337.5C1382.72 340.5 1383.22 343.5 1383.72 346C1384.72 349 1384.72 352.5 1383.72 355.5C1383.72 357 1383.22 359 1383.22 362V368C1383.72 370.5 1383.72 372.5 1383.72 375C1383.72 376.5 1383.72 378.5 1383.72 381.5C1384.22 383 1383.72 384 1384.22 385L1387.72 386.5C1389.22 386.5 1390.72 387 1391.22 388Z" fill="white"/>
<path d="M97.98 581.66C92.1867 581.66 86.8333 580.707 81.92 578.8C77.0067 576.82 72.7533 574.07 69.16 570.55C65.5667 567.03 62.7433 562.887 60.69 558.12C58.71 553.353 57.72 548.147 57.72 542.5C57.72 536.853 58.71 531.647 60.69 526.88C62.7433 522.113 65.5667 517.97 69.16 514.45C72.8267 510.93 77.1167 508.217 82.03 506.31C86.9433 504.33 92.2967 503.34 98.09 503.34C103.663 503.34 108.907 504.293 113.82 506.2C118.733 508.033 122.877 510.82 126.25 514.56L121.08 519.73C117.927 516.503 114.443 514.193 110.63 512.8C106.817 511.333 102.71 510.6 98.31 510.6C93.69 510.6 89.4 511.407 85.44 513.02C81.48 514.56 78.0333 516.797 75.1 519.73C72.1667 522.59 69.8567 525.963 68.17 529.85C66.5567 533.663 65.75 537.88 65.75 542.5C65.75 547.12 66.5567 551.373 68.17 555.26C69.8567 559.073 72.1667 562.447 75.1 565.38C78.0333 568.24 81.48 570.477 85.44 572.09C89.4 573.63 93.69 574.4 98.31 574.4C102.71 574.4 106.817 573.667 110.63 572.2C114.443 570.733 117.927 568.387 121.08 565.16L126.25 570.33C122.877 574.07 118.733 576.893 113.82 578.8C108.907 580.707 103.627 581.66 97.98 581.66ZM131.549 581L166.749 504H174.779L209.979 581H201.399L169.059 508.73H172.359L140.019 581H131.549ZM145.409 560.43L147.829 553.83H192.599L195.019 560.43H145.409ZM236.009 581V511.04H208.949V504H271.209V511.04H244.149V581H236.009ZM293.673 538.43H334.373V545.36H293.673V538.43ZM294.553 573.96H340.863V581H286.413V504H339.213V511.04H294.553V573.96ZM362.197 581V504H391.017C397.544 504 403.154 505.063 407.847 507.19C412.541 509.243 416.134 512.25 418.627 516.21C421.194 520.097 422.477 524.827 422.477 530.4C422.477 535.827 421.194 540.52 418.627 544.48C416.134 548.367 412.541 551.373 407.847 553.5C403.154 555.553 397.544 556.58 391.017 556.58H366.707L370.337 552.84V581H362.197ZM414.777 581L394.977 553.06H403.777L423.687 581H414.777ZM370.337 553.5L366.707 549.65H390.797C398.497 549.65 404.327 547.963 408.287 544.59C412.321 541.217 414.337 536.487 414.337 530.4C414.337 524.24 412.321 519.473 408.287 516.1C404.327 512.727 398.497 511.04 390.797 511.04H366.707L370.337 507.19V553.5ZM443.89 581V504H452.03V581H443.89ZM479.283 581V504H485.993L539.123 570.88H535.603V504H543.633V581H536.923L483.903 514.12H487.423V581H479.283ZM604.735 581.66C598.869 581.66 593.442 580.707 588.455 578.8C583.542 576.82 579.252 574.07 575.585 570.55C571.992 567.03 569.169 562.887 567.115 558.12C565.135 553.353 564.145 548.147 564.145 542.5C564.145 536.853 565.135 531.647 567.115 526.88C569.169 522.113 572.029 517.97 575.695 514.45C579.362 510.93 583.652 508.217 588.565 506.31C593.552 504.33 598.979 503.34 604.845 503.34C610.712 503.34 616.065 504.257 620.905 506.09C625.819 507.923 629.999 510.71 633.445 514.45L628.385 519.62C625.159 516.393 621.602 514.083 617.715 512.69C613.829 511.297 609.649 510.6 605.175 510.6C600.409 510.6 596.009 511.407 591.975 513.02C588.015 514.56 584.532 516.797 581.525 519.73C578.592 522.59 576.282 525.963 574.595 529.85C572.982 533.663 572.175 537.88 572.175 542.5C572.175 547.047 572.982 551.263 574.595 555.15C576.282 559.037 578.592 562.447 581.525 565.38C584.532 568.24 588.015 570.477 591.975 572.09C596.009 573.63 600.372 574.4 605.065 574.4C609.465 574.4 613.609 573.74 617.495 572.42C621.455 571.1 625.085 568.863 628.385 565.71L633.005 571.87C629.339 575.097 625.049 577.553 620.135 579.24C615.222 580.853 610.089 581.66 604.735 581.66ZM625.195 570.88V542.5H633.005V571.87L625.195 570.88ZM707.933 581.66C702.946 581.66 698.509 580.853 694.623 579.24C690.736 577.553 687.656 575.243 685.383 572.31C683.183 569.377 682.083 565.967 682.083 562.08C682.083 558.78 682.816 555.773 684.283 553.06C685.749 550.273 688.096 547.56 691.323 544.92C694.623 542.207 698.986 539.383 704.413 536.45C709.033 533.883 712.626 531.683 715.193 529.85C717.833 527.943 719.703 526.147 720.803 524.46C721.903 522.7 722.453 520.83 722.453 518.85C722.453 515.99 721.463 513.68 719.483 511.92C717.576 510.16 714.826 509.28 711.233 509.28C707.346 509.28 704.339 510.27 702.213 512.25C700.086 514.157 699.023 516.65 699.023 519.73C699.023 521.27 699.243 522.737 699.683 524.13C700.196 525.523 701.113 527.063 702.433 528.75C703.826 530.437 705.733 532.563 708.153 535.13L748.853 577.04L744.343 582.21L701.883 538.54C699.316 535.827 697.263 533.48 695.723 531.5C694.256 529.447 693.229 527.503 692.643 525.67C692.056 523.837 691.763 521.893 691.763 519.84C691.763 516.54 692.533 513.68 694.073 511.26C695.686 508.767 697.959 506.86 700.893 505.54C703.826 504.147 707.273 503.45 711.233 503.45C714.826 503.45 717.943 504.073 720.583 505.32C723.296 506.493 725.386 508.217 726.853 510.49C728.393 512.763 729.163 515.513 729.163 518.74C729.163 521.527 728.466 524.13 727.073 526.55C725.753 528.97 723.553 531.353 720.473 533.7C717.393 535.973 713.213 538.54 707.933 541.4C703.313 543.967 699.646 546.313 696.933 548.44C694.293 550.567 692.423 552.657 691.323 554.71C690.223 556.69 689.673 558.89 689.673 561.31C689.673 564.097 690.443 566.553 691.983 568.68C693.596 570.733 695.796 572.347 698.583 573.52C701.443 574.62 704.706 575.17 708.373 575.17C713.506 575.17 718.089 574.107 722.123 571.98C726.156 569.853 729.529 566.627 732.243 562.3C735.029 557.973 737.046 552.547 738.293 546.02L744.563 548C743.169 555.333 740.786 561.493 737.413 566.48C734.039 571.467 729.859 575.243 724.873 577.81C719.886 580.377 714.239 581.66 707.933 581.66ZM803.266 538.43H843.966V545.36H803.266V538.43ZM804.146 573.96H850.456V581H796.006V504H848.806V511.04H804.146V573.96ZM892.605 581L858.505 504H867.305L899.205 576.49H894.365L926.485 504H934.735L900.635 581H892.605ZM955.371 538.43H996.071V545.36H955.371V538.43ZM956.251 573.96H1002.56V581H948.111V504H1000.91V511.04H956.251V573.96ZM1023.89 581V504H1030.6L1083.73 570.88H1080.21V504H1088.24V581H1081.53L1028.51 514.12H1032.03V581H1023.89ZM1130.54 581V511.04H1103.48V504H1165.74V511.04H1138.68V581H1130.54ZM1213.53 581.66C1207.73 581.66 1202.34 580.707 1197.36 578.8C1192.44 576.82 1188.15 574.07 1184.49 570.55C1180.89 566.957 1178.07 562.813 1176.02 558.12C1174.04 553.353 1173.05 548.147 1173.05 542.5C1173.05 536.853 1174.04 531.683 1176.02 526.99C1178.07 522.223 1180.89 518.08 1184.49 514.56C1188.15 510.967 1192.44 508.217 1197.36 506.31C1202.27 504.33 1207.66 503.34 1213.53 503.34C1219.32 503.34 1224.67 504.33 1229.59 506.31C1234.5 508.217 1238.75 510.93 1242.35 514.45C1246.01 517.97 1248.84 522.113 1250.82 526.88C1252.87 531.647 1253.9 536.853 1253.9 542.5C1253.9 548.147 1252.87 553.353 1250.82 558.12C1248.84 562.887 1246.01 567.03 1242.35 570.55C1238.75 574.07 1234.5 576.82 1229.59 578.8C1224.67 580.707 1219.32 581.66 1213.53 581.66ZM1213.53 574.4C1218.15 574.4 1222.4 573.63 1226.29 572.09C1230.25 570.477 1233.66 568.24 1236.52 565.38C1239.45 562.447 1241.72 559.073 1243.34 555.26C1244.95 551.373 1245.76 547.12 1245.76 542.5C1245.76 537.88 1244.95 533.663 1243.34 529.85C1241.72 525.963 1239.45 522.59 1236.52 519.73C1233.66 516.797 1230.25 514.56 1226.29 513.02C1222.4 511.407 1218.15 510.6 1213.53 510.6C1208.91 510.6 1204.62 511.407 1200.66 513.02C1196.7 514.56 1193.25 516.797 1190.32 519.73C1187.46 522.59 1185.18 525.963 1183.5 529.85C1181.88 533.663 1181.08 537.88 1181.08 542.5C1181.08 547.047 1181.88 551.263 1183.5 555.15C1185.18 559.037 1187.46 562.447 1190.32 565.38C1193.25 568.24 1196.7 570.477 1200.66 572.09C1204.62 573.63 1208.91 574.4 1213.53 574.4ZM1295.57 581.66C1289.85 581.66 1284.35 580.743 1279.07 578.91C1273.87 577.003 1269.83 574.583 1266.97 571.65L1270.16 565.38C1272.88 568.02 1276.51 570.257 1281.05 572.09C1285.67 573.85 1290.51 574.73 1295.57 574.73C1300.41 574.73 1304.34 574.143 1307.34 572.97C1310.42 571.723 1312.66 570.073 1314.05 568.02C1315.52 565.967 1316.25 563.693 1316.25 561.2C1316.25 558.193 1315.37 555.773 1313.61 553.94C1311.93 552.107 1309.69 550.677 1306.9 549.65C1304.12 548.55 1301.04 547.597 1297.66 546.79C1294.29 545.983 1290.92 545.14 1287.54 544.26C1284.17 543.307 1281.05 542.06 1278.19 540.52C1275.41 538.98 1273.13 536.963 1271.37 534.47C1269.69 531.903 1268.84 528.567 1268.84 524.46C1268.84 520.647 1269.83 517.163 1271.81 514.01C1273.87 510.783 1276.98 508.217 1281.16 506.31C1285.34 504.33 1290.7 503.34 1297.22 503.34C1301.55 503.34 1305.84 503.963 1310.09 505.21C1314.35 506.383 1318.01 508.033 1321.09 510.16L1318.34 516.65C1315.04 514.45 1311.52 512.837 1307.78 511.81C1304.12 510.783 1300.56 510.27 1297.11 510.27C1292.49 510.27 1288.68 510.893 1285.67 512.14C1282.67 513.387 1280.43 515.073 1278.96 517.2C1277.57 519.253 1276.87 521.6 1276.87 524.24C1276.87 527.247 1277.72 529.667 1279.4 531.5C1281.16 533.333 1283.44 534.763 1286.22 535.79C1289.08 536.817 1292.2 537.733 1295.57 538.54C1298.95 539.347 1302.28 540.227 1305.58 541.18C1308.96 542.133 1312.04 543.38 1314.82 544.92C1317.68 546.387 1319.96 548.367 1321.64 550.86C1323.4 553.353 1324.28 556.617 1324.28 560.65C1324.28 564.39 1323.26 567.873 1321.2 571.1C1319.15 574.253 1316 576.82 1311.74 578.8C1307.56 580.707 1302.17 581.66 1295.57 581.66Z" fill="#B68D3C"/>
</svg>
